<svg xmlns="http://www.w3.org/2000/svg" xmlns:xlink="http://www.w3.org/1999/xlink" width="500" zoomAndPan="magnify" viewBox="0 0 375 374.999991" height="500" preserveAspectRatio="xMidYMid meet" version="1.0"><defs><g/><clipPath id="257bac3b86"><path d="M 227.625 165.199219 L 294 165.199219 L 294 228 L 227.625 228 Z M 227.625 165.199219 " clip-rule="nonzero"/></clipPath></defs><path stroke-linecap="butt" transform="matrix(0.75, 0, 0, 0.75, 85.313245, 2.891016)" fill="none" stroke-linejoin="miter" d="M 81.045887 222.186993 L 132.212557 142.114071 L 175.295893 142.114071 L 126.82714 218.358868 L 140.004224 298.431789 L 101.457346 316.572416 Z M 97.488596 142.114071 L 83.176095 207.306783 L 69.993803 225.301576 L 76.795886 236.640119 L 63.051094 299.285956 L 23.790674 299.285956 L 53.269843 164.077614 L 36.545884 142.114071 Z M 97.488596 142.114071 " stroke="#ffffff" stroke-width="11.247381" stroke-opacity="1" stroke-miterlimit="4"/><g fill="#000000" fill-opacity="1"><g transform="translate(99.117932, 227.141002)"><g><path d="M 46.984375 -57.609375 L 85.359375 -117.671875 L 117.671875 -117.671875 L 81.3125 -60.484375 L 91.203125 -0.421875 L 62.28125 13.1875 Z M 59.3125 -117.671875 L 48.578125 -68.765625 L 38.6875 -55.265625 L 43.796875 -46.765625 L 33.484375 0.21875 L 4.046875 0.21875 L 26.140625 -101.1875 L 13.609375 -117.671875 Z M 59.3125 -117.671875 "/></g></g></g><path stroke-linecap="butt" transform="matrix(0.75, 0, 0, 0.75, 168.685203, 2.891016)" fill="none" stroke-linejoin="miter" d="M 134.919738 186.614074 L 95.378069 186.614074 L 98.492652 172.015114 L 88.575985 172.015114 L 60.935358 298.858873 L 21.253064 298.858873 L 49.034316 172.015114 L 30.466606 172.015114 L 6.659313 141.686987 L 144.69578 141.686987 Z M 134.919738 186.614074 " stroke="#ffffff" stroke-width="11.247381" stroke-opacity="1" stroke-miterlimit="4"/><g fill="#ff3131" fill-opacity="1"><g transform="translate(173.571921, 227.141002)"><g><path d="M 96.296875 -84.296875 L 66.640625 -84.296875 L 68.984375 -95.234375 L 61.546875 -95.234375 L 40.8125 -0.109375 L 11.046875 -0.109375 L 31.890625 -95.234375 L 17.96875 -95.234375 L 0.109375 -117.984375 L 103.640625 -117.984375 Z M 96.296875 -84.296875 "/></g></g></g><g clip-path="url(#257bac3b86)"><path fill="#000000" d="M 272.863281 165.234375 C 271.449219 165.253906 269.4375 165.503906 266.675781 165.996094 C 265.167969 166.269531 264.796875 166.398438 264.398438 166.800781 C 263.941406 167.261719 263.917969 167.367188 263.871094 169.246094 C 263.816406 171.175781 263.824219 171.214844 264.246094 171.492188 C 264.484375 171.644531 265.273438 172.296875 266.003906 172.9375 C 267.710938 174.433594 268.007812 174.449219 269.71875 173.148438 C 270.464844 172.582031 270.503906 172.378906 269.871094 172.367188 C 269.550781 172.363281 268.484375 171.878906 268.757812 171.863281 C 268.816406 171.859375 269.472656 172.058594 270.210938 172.308594 C 272.492188 172.875 273.382812 170.484375 275.195312 169.628906 C 278.914062 170.445312 277.519531 175.5 280.484375 179.808594 C 282.171875 182.964844 283.609375 183.367188 287.4375 181.773438 C 287.667969 181.675781 287.730469 181.695312 287.648438 181.832031 C 287.457031 182.136719 284.847656 182.902344 283.988281 182.902344 C 282.910156 182.902344 282.1875 182.554688 281.464844 181.683594 L 280.84375 180.9375 C 277.582031 180.441406 275.433594 181.898438 274.484375 183.472656 C 274.320312 183.671875 270.746094 186.128906 270.414062 187.316406 C 270.234375 184.320312 273.726562 183.503906 273.503906 183.472656 C 270.476562 184.023438 262.964844 183.714844 261.050781 186.558594 C 259.160156 183.527344 261.253906 180.449219 261.59375 179.265625 C 262.023438 177.820312 261.761719 176.265625 260.988281 175.011719 C 260.890625 174.589844 260.566406 174.222656 260.25 173.917969 C 259.726562 173.417969 259.046875 173.085938 258.574219 172.542969 C 258.070312 171.960938 257.765625 171.144531 256.964844 170.875 C 255.605469 170.414062 254.148438 170.84375 252.863281 171.335938 C 252.113281 171.625 251.332031 171.824219 250.515625 171.878906 C 249.828125 171.925781 248.445312 171.164062 248.453125 171.851562 C 248.457031 172.269531 249.898438 171.570312 249.496094 171.8125 C 249.121094 172.039062 248.734375 172.160156 248.253906 172.226562 C 247.429688 172.34375 246.605469 172.441406 245.765625 172.464844 C 245.585938 172.472656 245.28125 172.359375 245.65625 172.492188 C 246.253906 172.699219 246.730469 173.054688 247.355469 173.285156 C 247.976562 173.511719 246.964844 173.628906 246.738281 173.644531 C 245.4375 173.742188 244.035156 174.066406 242.828125 173.5625 C 242.585938 173.457031 242.410156 173.476562 242.621094 173.75 C 243.066406 174.34375 243.851562 174.5 244.523438 174.714844 C 244.785156 174.796875 245.488281 174.917969 245.445312 174.921875 C 244.585938 175 243.949219 175.863281 243.050781 175.734375 C 242.804688 175.699219 242.605469 175.714844 242.9375 175.859375 C 244.246094 176.425781 245.425781 177.371094 246.824219 177.699219 C 246.582031 178.277344 246.628906 178.777344 246.933594 179.582031 C 247.210938 180.304688 247.207031 180.351562 246.820312 181.183594 C 246.597656 181.652344 245.328125 182.429688 245.109375 182.574219 C 244.566406 182.925781 245.941406 182.972656 246.5625 183.621094 C 247.019531 184.101562 246.804688 184.78125 246.636719 185.207031 C 247.640625 185.089844 247.277344 185.265625 248.136719 185.492188 C 247.324219 185.582031 246.839844 185.828125 246.996094 186.066406 C 247.507812 186.847656 248.210938 187.652344 249.347656 188.863281 C 251.320312 188.175781 251.988281 187.375 252.453125 187.613281 C 253.675781 188.246094 253.804688 188.957031 252.960938 190.402344 C 252.457031 191.261719 252.171875 191.402344 250.1875 191.769531 C 247.222656 192.316406 244.703125 193.941406 243.796875 195.890625 C 242.753906 197.375 243.878906 200.324219 243.878906 200.324219 C 243.878906 200.324219 242.328125 198.820312 242.890625 196.6875 C 239.980469 197.714844 238.152344 195.671875 235.320312 198.792969 C 234.707031 199.71875 234.601562 199.515625 235.179688 198.527344 C 235.601562 197.804688 235.636719 197.628906 235.53125 196.640625 C 235.464844 196.039062 235.1875 194.898438 234.90625 194.101562 C 234.304688 192.375 233.957031 190.035156 234.128906 188.882812 C 234.226562 188.222656 234.296875 188.09375 234.480469 188.246094 C 235.320312 188.945312 236.667969 188.761719 237.460938 187.847656 C 237.722656 187.542969 238.148438 187.1875 238.410156 187.054688 C 239.246094 186.628906 239.578125 185.632812 239.578125 183.539062 C 239.578125 181.773438 240.507812 180.714844 239.851562 180.863281 C 238.960938 181.070312 234.632812 178.253906 234.066406 178.769531 C 232.511719 179.304688 231.507812 183.832031 230.171875 185.078125 C 230.179688 188.21875 229.695312 191.578125 228.898438 194.117188 C 227.734375 197.773438 227.613281 198.367188 227.617188 200.417969 C 227.617188 202.523438 228.042969 204.46875 228.808594 205.835938 C 229.039062 206.253906 229.1875 206.730469 229.136719 206.894531 C 229.066406 207.113281 229.226562 207.285156 229.742188 207.539062 C 230.433594 207.882812 230.460938 207.882812 232.035156 207.566406 C 236.320312 206.234375 237.949219 211.269531 245.003906 206.835938 C 246.113281 207.980469 243.488281 212.613281 245.566406 213.789062 C 245.566406 213.789062 249.777344 213.398438 250.789062 212.941406 C 250.242188 214.121094 245.574219 215.085938 245.574219 215.085938 C 243.796875 216.417969 247.070312 221.492188 244.4375 225.640625 C 244.421875 225.664062 244.40625 225.6875 244.40625 225.691406 C 244.40625 225.953125 248.320312 223.65625 250.847656 223.925781 C 252.316406 224.082031 257.019531 225.171875 258.476562 226.570312 C 260.921875 228.917969 265.917969 226.847656 267.15625 226.253906 C 267.882812 223.308594 266.574219 217.695312 264.617188 215.472656 C 264.132812 214.933594 264.050781 214.734375 264.140625 214.292969 C 264.214844 213.914062 264.183594 213.78125 264.03125 213.832031 C 261.933594 216.011719 259.917969 217.042969 259.417969 220.945312 C 259.417969 215.6875 262.761719 214.921875 263.804688 213.46875 C 265.460938 211.167969 268.386719 208.460938 270.691406 206.746094 C 271.195312 206.367188 264.449219 205.949219 264.421875 202.457031 C 265.117188 205.824219 272.792969 205.300781 273.140625 205.007812 C 274.429688 203.933594 275.722656 202.367188 276.832031 200.523438 C 277.660156 199.144531 278.679688 196.9375 278.550781 196.804688 C 277.914062 197.335938 276.414062 198.027344 276.070312 197.214844 C 276.710938 197.75 278.167969 196.28125 278.953125 196.03125 C 284.414062 194.597656 287.199219 191.644531 290.734375 186.164062 C 291.617188 184.796875 293.664062 180.769531 293.824219 180.082031 C 294.347656 177.84375 290.292969 173.015625 284.953125 169.515625 C 280.855469 166.832031 278.273438 165.828125 274.082031 165.289062 C 273.738281 165.246094 273.332031 165.226562 272.863281 165.234375 Z M 272.863281 165.234375 " fill-opacity="1" fill-rule="nonzero"/></g><g fill="#000000" fill-opacity="1"><g transform="translate(99.562373, 259.307282)"><g><path d="M 6.8125 -8.84375 L 12.6875 -18.03125 L 17.640625 -18.03125 L 12.078125 -9.28125 L 13.59375 -0.078125 L 9.15625 2 Z M 8.703125 -18.03125 L 7.0625 -10.546875 L 5.546875 -8.484375 L 6.328125 -7.171875 L 4.75 0.015625 L 0.25 0.015625 L 3.625 -15.515625 L 1.703125 -18.03125 Z M 8.703125 -18.03125 "/></g></g></g><g fill="#000000" fill-opacity="1"><g transform="translate(116.643538, 259.307282)"><g><path d="M 14.890625 -18.0625 L 13.75 -12.90625 L 9.25 -12.90625 L 9.59375 -14.578125 L 7.75 -14.578125 L 6.9375 -10.890625 L 12.734375 -10.890625 L 8.015625 -7.40625 L 6.171875 -7.40625 L 5.328125 -3.5 L 7.171875 -3.5 L 7.546875 -5.1875 L 12.078125 -5.1875 L 10.9375 -0.015625 L 0.015625 -0.015625 L 3.421875 -15.546875 L 1.484375 -18.0625 Z M 14.890625 -18.0625 "/></g></g></g><g fill="#000000" fill-opacity="1"><g transform="translate(132.097924, 259.307282)"><g><path d="M 16.03125 -18.0625 L 8.328125 -0.015625 L 0.8125 -0.015625 L 1.015625 -18.0625 L 5.921875 -18.0625 L 5.53125 -5.125 L 5.5625 -4.640625 L 10.09375 -15.640625 L 8.265625 -18.0625 Z M 16.03125 -18.0625 "/></g></g></g><g fill="#000000" fill-opacity="1"><g transform="translate(147.828869, 259.307282)"><g><path d="M 1.484375 -18.0625 L 8.5 -18.0625 L 4.5625 -0.015625 L 0.015625 -0.015625 L 3.40625 -15.546875 Z M 1.484375 -18.0625 "/></g></g></g><g fill="#000000" fill-opacity="1"><g transform="translate(156.45079, 259.307282)"><g><path d="M 4.8125 -0.03125 L 0.28125 -0.03125 L 3.65625 -15.5625 L 1.734375 -18.078125 L 8.546875 -18.078125 L 10.828125 -10.8125 L 12.40625 -18.078125 L 16.921875 -18.078125 L 13.015625 -0.234375 L 10.453125 1.6875 L 6.734375 -8.796875 Z M 4.8125 -0.03125 "/></g></g></g><g fill="#ff3131" fill-opacity="1"><g transform="translate(185.004719, 259.307282)"><g><path d="M 14.75 -12.90625 L 10.203125 -12.90625 L 10.5625 -14.578125 L 9.421875 -14.578125 L 6.25 -0.015625 L 1.6875 -0.015625 L 4.875 -14.578125 L 2.75 -14.578125 L 0.015625 -18.0625 L 15.859375 -18.0625 Z M 14.75 -12.90625 "/></g></g></g><g fill="#ff3131" fill-opacity="1"><g transform="translate(200.345237, 259.307282)"><g><path d="M 3.703125 -18.0625 L 14.625 -18.0625 C 14.78125 -18.0625 14.914062 -18.019531 15.03125 -17.9375 C 15.113281 -17.894531 15.179688 -17.84375 15.234375 -17.78125 C 15.296875 -17.726562 15.351562 -17.675781 15.40625 -17.625 C 15.507812 -17.488281 15.59375 -17.359375 15.65625 -17.234375 C 15.71875 -17.085938 15.738281 -16.96875 15.71875 -16.875 L 12.03125 -0.015625 L 1.109375 -0.015625 C 0.972656 -0.015625 0.835938 -0.0625 0.703125 -0.15625 C 0.566406 -0.25 0.445312 -0.351562 0.34375 -0.46875 C 0.238281 -0.59375 0.148438 -0.722656 0.078125 -0.859375 C 0.0546875 -0.921875 0.0351562 -0.984375 0.015625 -1.046875 C 0.00390625 -1.109375 0.0078125 -1.160156 0.03125 -1.203125 Z M 5.046875 -3.5 L 8.265625 -3.5 L 10.6875 -14.578125 L 7.46875 -14.578125 Z M 5.046875 -3.5 "/></g></g></g><g fill="#ff3131" fill-opacity="1"><g transform="translate(216.88957, 259.307282)"><g><path d="M 10.671875 -9.734375 L 11.71875 -14.515625 L 8.171875 -14.515625 L 6.96875 -9.03125 L 5.703125 -8.171875 L 6.296875 -5.96875 L 4.984375 0.046875 L 0.4375 0.046875 L 3.84375 -15.46875 L 1.90625 -18 L 15.6875 -18 C 15.800781 -18 15.9375 -17.957031 16.09375 -17.875 C 16.238281 -17.78125 16.359375 -17.671875 16.453125 -17.546875 C 16.554688 -17.429688 16.640625 -17.304688 16.703125 -17.171875 C 16.765625 -17.003906 16.785156 -16.882812 16.765625 -16.8125 L 14.75 -7.53125 L 12.328125 -6.296875 L 13.8125 -0.0625 L 9.375 2.03125 L 6.796875 -7.78125 Z M 10.671875 -9.734375 "/></g></g></g><g fill="#ff3131" fill-opacity="1"><g transform="translate(234.263555, 259.307282)"><g><path d="M 10.671875 -9.734375 L 11.71875 -14.515625 L 8.171875 -14.515625 L 6.96875 -9.03125 L 5.703125 -8.171875 L 6.296875 -5.96875 L 4.984375 0.046875 L 0.4375 0.046875 L 3.84375 -15.46875 L 1.90625 -18 L 15.6875 -18 C 15.800781 -18 15.9375 -17.957031 16.09375 -17.875 C 16.238281 -17.78125 16.359375 -17.671875 16.453125 -17.546875 C 16.554688 -17.429688 16.640625 -17.304688 16.703125 -17.171875 C 16.765625 -17.003906 16.785156 -16.882812 16.765625 -16.8125 L 14.75 -7.53125 L 12.328125 -6.296875 L 13.8125 -0.0625 L 9.375 2.03125 L 6.796875 -7.78125 Z M 10.671875 -9.734375 "/></g></g></g><g fill="#ff3131" fill-opacity="1"><g transform="translate(251.637539, 259.307282)"><g><path d="M 14.890625 -18.0625 L 13.75 -12.90625 L 9.25 -12.90625 L 9.59375 -14.578125 L 7.75 -14.578125 L 6.9375 -10.890625 L 12.734375 -10.890625 L 8.015625 -7.40625 L 6.171875 -7.40625 L 5.328125 -3.5 L 7.171875 -3.5 L 7.546875 -5.1875 L 12.078125 -5.1875 L 10.9375 -0.015625 L 0.015625 -0.015625 L 3.421875 -15.546875 L 1.484375 -18.0625 Z M 14.890625 -18.0625 "/></g></g></g><g fill="#ff3131" fill-opacity="1"><g transform="translate(267.091926, 259.307282)"><g><path d="M 1.109375 -0.015625 C 0.972656 -0.015625 0.835938 -0.0625 0.703125 -0.15625 C 0.566406 -0.25 0.445312 -0.351562 0.34375 -0.46875 C 0.238281 -0.59375 0.148438 -0.722656 0.078125 -0.859375 C 0.0546875 -0.921875 0.0351562 -0.984375 0.015625 -1.046875 C 0.00390625 -1.109375 0.0078125 -1.160156 0.03125 -1.203125 L 1.484375 -7.875 L 5.46875 -5.40625 L 5.046875 -3.5 L 8.265625 -3.5 L 8.765625 -5.828125 L 2.0625 -10.515625 L 3.703125 -18.0625 L 14.65625 -18.0625 C 14.800781 -18.0625 14.9375 -18.019531 15.0625 -17.9375 C 15.195312 -17.84375 15.316406 -17.738281 15.421875 -17.625 C 15.523438 -17.5 15.613281 -17.367188 15.6875 -17.234375 C 15.726562 -17.085938 15.742188 -16.96875 15.734375 -16.875 L 14.375 -10.640625 L 10.375 -13.109375 L 10.6875 -14.578125 L 7.515625 -14.578125 L 7.140625 -12.875 L 13.828125 -8.171875 L 12.0625 -0.015625 Z M 1.109375 -0.015625 "/></g></g></g></svg>