<svg xmlns="http://www.w3.org/2000/svg" xmlns:xlink="http://www.w3.org/1999/xlink" width="500" zoomAndPan="magnify" viewBox="0 0 375 374.999991" height="500" preserveAspectRatio="xMidYMid meet" version="1.0"><defs><g/><clipPath id="629e680a02"><path d="M 246.285156 153.511719 L 362 153.511719 L 362 263 L 246.285156 263 Z M 246.285156 153.511719 " clip-rule="nonzero"/></clipPath></defs><path stroke-linecap="butt" transform="matrix(1.310236, 0, 0, 1.310236, -2.331578, -130.036779)" fill="none" stroke-linejoin="miter" d="M 81.047178 222.185043 L 132.209825 142.112415 L 175.293061 142.112415 L 126.825538 218.359993 L 140.006009 298.432621 L 101.45738 316.57403 Z M 97.489227 142.112415 L 83.172868 207.305212 L 69.992397 225.303517 L 76.795798 236.641524 L 63.048874 299.282301 L 23.790688 299.282301 L 53.270103 164.078873 L 36.547809 142.112415 Z M 97.489227 142.112415 " stroke="#ffffff" stroke-width="11.247381" stroke-opacity="1" stroke-miterlimit="4"/><g fill="#000000" fill-opacity="1"><g transform="translate(21.784958, 261.723869)"><g><path d="M 82.078125 -100.640625 L 149.109375 -205.5625 L 205.5625 -205.5625 L 142.046875 -105.65625 L 159.328125 -0.75 L 108.8125 23.03125 Z M 103.609375 -205.5625 L 84.859375 -120.140625 L 67.59375 -96.5625 L 76.5 -81.703125 L 58.5 0.375 L 7.0625 0.375 L 45.6875 -176.78125 L 23.765625 -205.5625 Z M 103.609375 -205.5625 "/></g></g></g><path stroke-linecap="butt" transform="matrix(1.310236, 0, 0, 1.310236, 143.317699, -130.036779)" fill="none" stroke-linejoin="miter" d="M 134.916234 186.611784 L 95.377802 186.611784 L 98.493295 172.01518 L 88.574402 172.01518 L 60.937449 298.858952 L 21.255914 298.858952 L 49.032989 172.01518 L 30.468231 172.01518 L 6.656329 141.686084 L 144.695004 141.686084 Z M 134.916234 186.611784 " stroke="#ffffff" stroke-width="11.247381" stroke-opacity="1" stroke-miterlimit="4"/><g fill="#ff3131" fill-opacity="1"><g transform="translate(151.854707, 261.723869)"><g><path d="M 168.234375 -147.25 L 116.421875 -147.25 L 120.515625 -166.375 L 107.515625 -166.375 L 71.3125 -0.1875 L 19.3125 -0.1875 L 55.703125 -166.375 L 31.375 -166.375 L 0.1875 -206.125 L 181.046875 -206.125 Z M 168.234375 -147.25 "/></g></g></g><g clip-path="url(#629e680a02)"><path fill="#000000" d="M 325.066406 153.578125 C 322.605469 153.609375 319.105469 154.046875 314.292969 154.910156 C 311.667969 155.378906 311.019531 155.609375 310.324219 156.308594 C 309.535156 157.113281 309.492188 157.296875 309.40625 160.566406 C 309.316406 163.921875 309.328125 163.992188 310.0625 164.472656 C 310.476562 164.738281 311.855469 165.871094 313.125 166.988281 C 316.097656 169.59375 316.613281 169.625 319.597656 167.355469 C 320.894531 166.371094 320.960938 166.019531 319.855469 166 C 319.300781 165.992188 317.441406 165.148438 317.917969 165.121094 C 318.023438 165.113281 319.164062 165.464844 320.449219 165.894531 C 324.425781 166.882812 325.976562 162.722656 329.128906 161.230469 C 335.609375 162.648438 333.183594 171.449219 338.34375 178.957031 C 341.285156 184.445312 343.785156 185.152344 350.453125 182.371094 C 350.851562 182.207031 350.964844 182.238281 350.816406 182.476562 C 350.488281 183.007812 345.941406 184.339844 344.445312 184.339844 C 342.566406 184.339844 341.308594 183.730469 340.050781 182.214844 L 338.96875 180.917969 C 333.292969 180.054688 329.542969 182.589844 327.894531 185.328125 C 327.605469 185.675781 321.382812 189.957031 320.808594 192.023438 C 320.488281 186.804688 326.574219 185.382812 326.183594 185.328125 C 320.914062 186.292969 307.832031 185.753906 304.5 190.703125 C 301.207031 185.429688 304.847656 180.070312 305.441406 178.007812 C 306.191406 175.496094 305.734375 172.785156 304.390625 170.597656 C 304.21875 169.863281 303.65625 169.226562 303.105469 168.699219 C 302.191406 167.828125 301.011719 167.253906 300.183594 166.300781 C 299.308594 165.292969 298.777344 163.871094 297.386719 163.402344 C 295.011719 162.601562 292.476562 163.347656 290.242188 164.203125 C 288.929688 164.703125 287.570312 165.054688 286.152344 165.148438 C 284.953125 165.226562 282.542969 163.902344 282.558594 165.097656 C 282.566406 165.828125 285.074219 164.613281 284.378906 165.03125 C 283.722656 165.425781 283.046875 165.632812 282.210938 165.753906 C 280.773438 165.957031 279.339844 166.125 277.878906 166.167969 C 277.5625 166.179688 277.035156 165.984375 277.6875 166.214844 C 278.726562 166.578125 279.558594 167.195312 280.648438 167.59375 C 281.726562 167.992188 279.964844 168.195312 279.570312 168.226562 C 277.308594 168.390625 274.859375 168.957031 272.761719 168.074219 C 272.335938 167.898438 272.035156 167.925781 272.398438 168.40625 C 273.179688 169.4375 274.546875 169.710938 275.71875 170.082031 C 276.171875 170.226562 277.398438 170.4375 277.320312 170.445312 C 275.820312 170.578125 274.710938 172.082031 273.152344 171.859375 C 272.722656 171.800781 272.371094 171.828125 272.957031 172.078125 C 275.234375 173.066406 277.285156 174.707031 279.71875 175.277344 C 279.300781 176.285156 279.382812 177.160156 279.914062 178.554688 C 280.394531 179.816406 280.390625 179.902344 279.714844 181.34375 C 279.328125 182.164062 277.117188 183.515625 276.734375 183.765625 C 275.792969 184.382812 278.1875 184.460938 279.265625 185.589844 C 280.0625 186.425781 279.6875 187.609375 279.394531 188.351562 C 281.140625 188.148438 280.511719 188.453125 282.003906 188.847656 C 280.589844 189.003906 279.746094 189.433594 280.015625 189.84375 C 280.910156 191.207031 282.136719 192.605469 284.113281 194.71875 C 287.550781 193.519531 288.71875 192.125 289.527344 192.542969 C 291.65625 193.644531 291.882812 194.882812 290.40625 197.398438 C 289.527344 198.894531 289.035156 199.140625 285.578125 199.777344 C 280.414062 200.730469 276.027344 203.554688 274.449219 206.949219 C 272.632812 209.535156 274.59375 214.671875 274.59375 214.671875 C 274.59375 214.671875 271.894531 212.054688 272.867188 208.335938 C 267.800781 210.128906 264.617188 206.570312 259.683594 212.007812 C 258.617188 213.617188 258.433594 213.265625 259.445312 211.542969 C 260.179688 210.289062 260.238281 209.976562 260.050781 208.257812 C 259.941406 207.214844 259.453125 205.222656 258.96875 203.835938 C 257.921875 200.832031 257.3125 196.753906 257.609375 194.753906 C 257.785156 193.601562 257.90625 193.378906 258.226562 193.644531 C 259.691406 194.859375 262.035156 194.542969 263.414062 192.945312 C 263.871094 192.417969 264.613281 191.796875 265.066406 191.566406 C 266.523438 190.828125 267.097656 189.09375 267.097656 185.449219 C 267.097656 182.371094 268.71875 180.527344 267.578125 180.792969 C 266.023438 181.148438 258.488281 176.246094 257.503906 177.140625 C 254.792969 178.074219 253.042969 185.960938 250.722656 188.125 C 250.734375 193.597656 249.890625 199.445312 248.503906 203.867188 C 246.476562 210.226562 246.265625 211.265625 246.269531 214.832031 C 246.269531 218.5 247.015625 221.886719 248.34375 224.269531 C 248.75 224.996094 249.007812 225.824219 248.917969 226.109375 C 248.796875 226.492188 249.074219 226.785156 249.972656 227.230469 C 251.179688 227.828125 251.222656 227.828125 253.960938 227.277344 C 261.425781 224.960938 264.265625 233.726562 276.554688 226.011719 C 278.480469 228 273.914062 236.066406 277.535156 238.113281 C 277.535156 238.113281 284.863281 237.433594 286.625 236.640625 C 285.675781 238.695312 277.546875 240.375 277.546875 240.375 C 274.449219 242.691406 280.148438 251.523438 275.5625 258.746094 C 275.535156 258.789062 275.511719 258.824219 275.511719 258.832031 C 275.511719 259.289062 282.324219 255.292969 286.726562 255.761719 C 289.289062 256.03125 297.476562 257.929688 300.015625 260.367188 C 304.273438 264.453125 312.972656 260.847656 315.128906 259.816406 C 316.394531 254.683594 314.117188 244.917969 310.710938 241.042969 C 309.863281 240.105469 309.722656 239.757812 309.875 238.992188 C 310.007812 238.332031 309.957031 238.101562 309.6875 238.1875 C 306.035156 241.984375 302.523438 243.777344 301.65625 250.574219 C 301.652344 241.421875 307.476562 240.082031 309.292969 237.554688 C 312.179688 233.550781 317.273438 228.839844 321.289062 225.851562 C 322.167969 225.195312 310.417969 224.464844 310.367188 218.382812 C 311.578125 224.25 324.945312 223.335938 325.554688 222.828125 C 327.800781 220.953125 330.050781 218.230469 331.980469 215.015625 C 333.421875 212.617188 335.203125 208.769531 334.976562 208.546875 C 333.867188 209.464844 331.25 210.671875 330.660156 209.257812 C 331.773438 210.1875 334.3125 207.636719 335.675781 207.195312 C 345.183594 204.703125 350.035156 199.5625 356.195312 190.019531 C 357.734375 187.640625 361.292969 180.625 361.574219 179.425781 C 362.484375 175.53125 355.425781 167.128906 346.121094 161.035156 C 338.984375 156.359375 334.492188 154.613281 327.191406 153.675781 C 326.59375 153.597656 325.886719 153.566406 325.066406 153.578125 Z M 325.066406 153.578125 " fill-opacity="1" fill-rule="nonzero"/></g><g fill="#000000" fill-opacity="1"><g transform="translate(22.561394, 317.917774)"><g><path d="M 11.90625 -15.4375 L 22.171875 -31.5 L 30.8125 -31.5 L 21.09375 -16.203125 L 23.734375 -0.140625 L 16 3.5 Z M 15.203125 -31.5 L 12.34375 -18.421875 L 9.6875 -14.8125 L 11.0625 -12.53125 L 8.296875 0.03125 L 0.421875 0.03125 L 6.34375 -27.09375 L 2.984375 -31.5 Z M 15.203125 -31.5 "/></g></g></g><g fill="#000000" fill-opacity="1"><g transform="translate(52.401878, 317.917774)"><g><path d="M 26.015625 -31.546875 L 24.015625 -22.546875 L 16.140625 -22.546875 L 16.765625 -25.46875 L 13.53125 -25.46875 L 12.109375 -19.015625 L 22.265625 -19.015625 L 14.015625 -12.9375 L 10.78125 -12.9375 L 9.296875 -6.109375 L 12.53125 -6.109375 L 13.1875 -9.0625 L 21.09375 -9.0625 L 19.109375 -0.03125 L 0.03125 -0.03125 L 5.96875 -27.140625 L 2.59375 -31.546875 Z M 26.015625 -31.546875 "/></g></g></g><g fill="#000000" fill-opacity="1"><g transform="translate(79.40041, 317.917774)"><g><path d="M 28 -31.546875 L 14.5625 -0.03125 L 1.421875 -0.03125 L 1.765625 -31.546875 L 10.34375 -31.546875 L 9.671875 -8.953125 L 9.71875 -8.109375 L 17.625 -27.3125 L 14.4375 -31.546875 Z M 28 -31.546875 "/></g></g></g><g fill="#000000" fill-opacity="1"><g transform="translate(106.882084, 317.917774)"><g><path d="M 2.59375 -31.546875 L 14.84375 -31.546875 L 7.953125 -0.03125 L 0.03125 -0.03125 L 5.9375 -27.140625 Z M 2.59375 -31.546875 "/></g></g></g><g fill="#000000" fill-opacity="1"><g transform="translate(121.944423, 317.917774)"><g><path d="M 8.421875 -0.0625 L 0.484375 -0.0625 L 6.390625 -27.171875 L 3.046875 -31.578125 L 14.921875 -31.578125 L 18.90625 -18.875 L 21.65625 -31.578125 L 29.5625 -31.578125 L 22.734375 -0.390625 L 18.25 2.953125 L 11.765625 -15.375 Z M 8.421875 -0.0625 "/></g></g></g><g fill="#ff3131" fill-opacity="1"><g transform="translate(171.827617, 317.917774)"><g><path d="M 25.75 -22.546875 L 17.828125 -22.546875 L 18.453125 -25.46875 L 16.453125 -25.46875 L 10.921875 -0.03125 L 2.953125 -0.03125 L 8.53125 -25.46875 L 4.796875 -25.46875 L 0.03125 -31.546875 L 27.71875 -31.546875 Z M 25.75 -22.546875 "/></g></g></g><g fill="#ff3131" fill-opacity="1"><g transform="translate(198.627223, 317.917774)"><g><path d="M 6.484375 -31.546875 L 25.5625 -31.546875 C 25.820312 -31.546875 26.054688 -31.472656 26.265625 -31.328125 C 26.398438 -31.253906 26.519531 -31.164062 26.625 -31.0625 C 26.726562 -30.96875 26.828125 -30.875 26.921875 -30.78125 C 27.085938 -30.5625 27.226562 -30.335938 27.34375 -30.109375 C 27.457031 -29.859375 27.492188 -29.648438 27.453125 -29.484375 L 21 -0.03125 L 1.9375 -0.03125 C 1.707031 -0.03125 1.46875 -0.113281 1.21875 -0.28125 C 0.988281 -0.4375 0.78125 -0.617188 0.59375 -0.828125 C 0.425781 -1.035156 0.273438 -1.257812 0.140625 -1.5 C 0.0976562 -1.613281 0.0625 -1.722656 0.03125 -1.828125 C 0.0078125 -1.929688 0.0195312 -2.023438 0.0625 -2.109375 Z M 8.8125 -6.109375 L 14.4375 -6.109375 L 18.671875 -25.46875 L 13.046875 -25.46875 Z M 8.8125 -6.109375 "/></g></g></g><g fill="#ff3131" fill-opacity="1"><g transform="translate(227.529873, 317.917774)"><g><path d="M 18.640625 -17 L 20.46875 -25.359375 L 14.265625 -25.359375 L 12.171875 -15.78125 L 9.953125 -14.265625 L 11 -10.4375 L 8.703125 0.078125 L 0.765625 0.078125 L 6.703125 -27.03125 L 3.328125 -31.4375 L 27.40625 -31.4375 C 27.613281 -31.4375 27.847656 -31.363281 28.109375 -31.21875 C 28.359375 -31.0625 28.566406 -30.867188 28.734375 -30.640625 C 28.929688 -30.453125 29.078125 -30.234375 29.171875 -29.984375 C 29.285156 -29.703125 29.320312 -29.492188 29.28125 -29.359375 L 25.75 -13.15625 L 21.546875 -11 L 24.140625 -0.109375 L 16.375 3.546875 L 11.875 -13.59375 Z M 18.640625 -17 "/></g></g></g><g fill="#ff3131" fill-opacity="1"><g transform="translate(257.881908, 317.917774)"><g><path d="M 18.640625 -17 L 20.46875 -25.359375 L 14.265625 -25.359375 L 12.171875 -15.78125 L 9.953125 -14.265625 L 11 -10.4375 L 8.703125 0.078125 L 0.765625 0.078125 L 6.703125 -27.03125 L 3.328125 -31.4375 L 27.40625 -31.4375 C 27.613281 -31.4375 27.847656 -31.363281 28.109375 -31.21875 C 28.359375 -31.0625 28.566406 -30.867188 28.734375 -30.640625 C 28.929688 -30.453125 29.078125 -30.234375 29.171875 -29.984375 C 29.285156 -29.703125 29.320312 -29.492188 29.28125 -29.359375 L 25.75 -13.15625 L 21.546875 -11 L 24.140625 -0.109375 L 16.375 3.546875 L 11.875 -13.59375 Z M 18.640625 -17 "/></g></g></g><g fill="#ff3131" fill-opacity="1"><g transform="translate(288.233943, 317.917774)"><g><path d="M 26.015625 -31.546875 L 24.015625 -22.546875 L 16.140625 -22.546875 L 16.765625 -25.46875 L 13.53125 -25.46875 L 12.109375 -19.015625 L 22.265625 -19.015625 L 14.015625 -12.9375 L 10.78125 -12.9375 L 9.296875 -6.109375 L 12.53125 -6.109375 L 13.1875 -9.0625 L 21.09375 -9.0625 L 19.109375 -0.03125 L 0.03125 -0.03125 L 5.96875 -27.140625 L 2.59375 -31.546875 Z M 26.015625 -31.546875 "/></g></g></g><g fill="#ff3131" fill-opacity="1"><g transform="translate(315.232475, 317.917774)"><g><path d="M 1.9375 -0.03125 C 1.707031 -0.03125 1.46875 -0.113281 1.21875 -0.28125 C 0.988281 -0.4375 0.78125 -0.617188 0.59375 -0.828125 C 0.425781 -1.035156 0.273438 -1.257812 0.140625 -1.5 C 0.0976562 -1.613281 0.0625 -1.722656 0.03125 -1.828125 C 0.0078125 -1.929688 0.0195312 -2.023438 0.0625 -2.109375 L 2.59375 -13.765625 L 9.546875 -9.4375 L 8.8125 -6.109375 L 14.4375 -6.109375 L 15.328125 -10.171875 L 3.609375 -18.359375 L 6.484375 -31.546875 L 25.609375 -31.546875 C 25.859375 -31.546875 26.097656 -31.472656 26.328125 -31.328125 C 26.554688 -31.171875 26.765625 -30.988281 26.953125 -30.78125 C 27.117188 -30.570312 27.269531 -30.347656 27.40625 -30.109375 C 27.476562 -29.859375 27.503906 -29.648438 27.484375 -29.484375 L 25.09375 -18.59375 L 18.140625 -22.90625 L 18.671875 -25.46875 L 13.140625 -25.46875 L 12.484375 -22.484375 L 24.15625 -14.265625 L 21.0625 -0.03125 Z M 1.9375 -0.03125 "/></g></g></g></svg>